<svg xmlns="http://www.w3.org/2000/svg" viewBox="0 0 32 32" fill="none">
  <!-- Background Circle -->
  <circle cx="16" cy="16" r="15" fill="#1e40af" stroke="#3b82f6" stroke-width="1"/>
  
  <!-- Shield Shape (Security) -->
  <path d="M16 4 C10 4, 8 8, 8 12 C8 20, 16 28, 16 28 C16 28, 24 20, 24 12 C24 8, 22 4, 16 4 Z" 
        fill="#60a5fa" 
        stroke="#dbeafe" 
        stroke-width="0.5"/>
  
  <!-- Circuit Pattern (Tech/AI) -->
  <g stroke="#1e3a8a" stroke-width="0.8" fill="none">
    <!-- Horizontal lines -->
    <line x1="12" y1="10" x2="20" y2="10"/>
    <line x1="10" y1="14" x2="22" y2="14"/>
    <line x1="12" y1="18" x2="20" y2="18"/>
    
    <!-- Vertical connectors -->
    <line x1="14" y1="10" x2="14" y2="14"/>
    <line x1="18" y1="10" x2="18" y2="14"/>
    <line x1="16" y1="14" x2="16" y2="18"/>
    
    <!-- Nodes (dots) -->
    <circle cx="12" cy="10" r="1" fill="#1e3a8a"/>
    <circle cx="20" cy="10" r="1" fill="#1e3a8a"/>
    <circle cx="10" cy="14" r="1" fill="#1e3a8a"/>
    <circle cx="22" cy="14" r="1" fill="#1e3a8a"/>
    <circle cx="12" cy="18" r="1" fill="#1e3a8a"/>
    <circle cx="20" cy="18" r="1" fill="#1e3a8a"/>
    
    <!-- Center node (larger) -->
    <circle cx="16" cy="14" r="1.5" fill="#dbeafe" stroke="#1e3a8a"/>
  </g>
  
  <!-- Lock Icon (Security) in center -->
  <g transform="translate(16, 14)">
    <rect x="-3" y="-1" width="6" height="5" rx="0.5" fill="#1e3a8a"/>
    <path d="M -2 -1 C -2 -3, 2 -3, 2 -1" stroke="#1e3a8a" stroke-width="1" fill="none"/>
    <circle cx="0" cy="1.5" r="0.5" fill="#60a5fa"/>
  </g>
</svg>