<svg width="300" height="150" xmlns="http://www.w3.org/2000/svg">
  <rect width="300" height="150" fill="#0969da" opacity="0.1" rx="6" ry="6"/>
  <g transform="translate(50, 75)">
    <path d="M96,32.558998c0,14.305-11.594,25.900997-25.899,25.900997C55.796,58.459995,44.202,46.864998,44.202,32.558998c0-14.301,11.594-25.899998,25.899-25.899998C84.406,6.659,96,18.258,96,32.558998z" fill="#0969da"/>
    <path d="M70.102,12.236c-11.195,0-20.275,9.082-20.275,20.272c0,8.954,5.816,16.548,13.868,19.228c1.017,0.187,1.388-0.438,1.388-0.977c0-0.477-0.021-2.072-0.021-3.745c-5.083,0.932-6.412-1.24-6.814-2.375c-0.233-0.582-1.232-2.375-2.109-2.857c-0.708-0.388-1.735-1.337-0.021-1.359c1.604-0.022,2.754,1.48,3.139,2.085c1.841,3.097,4.773,2.229,5.947,1.688c0.184-1.337,0.708-2.229,1.295-2.744c-4.532-0.505-9.275-2.257-9.275-10.037c0-2.229,0.795-4.035,2.096-5.458c-0.215-0.521-0.925-2.592,0.19-5.399c0,0,1.714-0.544,5.608,2.096c1.625-0.46,3.357-0.688,5.103-0.688c1.732,0,3.471,0.228,5.104,0.688c3.893-2.663,5.608-2.096,5.608-2.096c1.109,2.807,0.411,4.878,0.195,5.399c1.303,1.423,2.097,3.229,2.097,5.458c0,7.803-4.751,9.532-9.304,10.037c0.732,0.627,1.373,1.869,1.373,3.745c0,2.704-0.02,4.883-0.02,5.562c0,0.542,0.368,1.17,1.389,0.975c8.047-2.68,13.864-10.274,13.864-19.228C90.375,21.319,81.293,12.236,70.102,12.236z" fill="#ffffff"/>
  </g>
</svg>
