<svg width="300" height="150" xmlns="http://www.w3.org/2000/svg">
  <rect width="300" height="150" fill="#cf222e" opacity="0.1" rx="6" ry="6"/>
  <g transform="translate(100, 40)">
    <path d="M50.6,11.5c0.2-0.8,0.5-1.7,0.5-2.6c0-3-1.3-4.5-1.3-4.5S53,1.1,48.1,0C43.6-1,37.8,1.3,35.5,3.5
      c-1.5-0.3-4.3-0.6-7.2,0.2c-4.4,1.1-4.9,5.3-4.9,5.3S22,9.8,22,12.9c0,0.9,0.1,1.7,0.3,2.5c-2.6,2.8-4.1,6.1-4.1,9.7
      c0,7.5,5.5,14.4,14.6,16.1c-2.1,2-3.1,4.5-3.1,7.4v4.2c-0.9,0.2-1.8,0.4-2.3,0.4c-1.8,0-2.5-1.3-4.3-2.3c-1.8-1-3.1-1.1-4-1
      c-0.9,0.1-1.5,1-1.1,1.6c0.5,0.8,2.2,1.9,2.2,1.9c1.8,1.2,2.1,3.8,3.8,4.9c1.6,1,4.1,0.6,5.7-0.2c0.1,1.2,0.3,2.3,0.3,2.7
      c0.1,1-0.8,1.5-0.8,1.5c4.1,1.3,6.3-1.3,6.3-1.3c0.1-3.5,0.1-9.5,0.1-10.7c0-3.4,1.8-4.4,2.1-4.4v12.1c0,2.5-1.7,3.2-1.7,3.2
      c3.9,1.6,7.2,0,7.2,0c-1,0-1.7-1.1-1.7-3.2V40.5c0-3.1,1.9-4.2,1.9-4.2v12.5c0,0,0.2,4.4-0.4,6.1c-0.9,2.1-2.3,3.6-2.3,3.6
      c5.5-0.2,8.3-3.9,8.3-3.9c1.6-3.5,1.1-6.4,1.1-6.4V34.5c0-2.8-1.6-5.2-3.1-7.2c8.7-1.9,13.8-8.2,13.8-16.1
      C75.9,4.9,59.3-0.1,50.6,11.5z" fill="#cf222e"/>
  </g>
</svg>