<svg width="0" height="0" xmlns="http://www.w3.org/2000/svg">
  <defs>
    <!-- JavaScript -->
    <symbol id="icon-js" viewBox="0 0 24 24">
      <rect width="24" height="24" fill="#F7DF1E"/>
      <path d="M6.5,18.5 L8.5,17.5 C8.9,18.3 9.3,19.1 10.4,19.1 C11.5,19.1 12.1,18.6 12.1,17.1 L12.1,10 L14.6,10 L14.6,17.1 C14.6,19.8 13,21 10.5,21 C8.3,21 7,19.9 6.5,18.5 Z" fill="#000000"/>
      <path d="M15.5,18.2 L17.5,17.3 C17.9,18.2 18.6,18.9 19.9,18.9 C21,18.9 21.7,18.3 21.7,17.5 C21.7,16.6 21,16.2 19.8,15.6 L19.1,15.3 C17.2,14.4 16,13.2 16,11 C16,9 17.5,7.5 19.7,7.5 C21.3,7.5 22.5,8.1 23.3,9.6 L21.4,10.6 C21.1,9.9 20.6,9.5 19.7,9.5 C18.8,9.5 18.3,10 18.3,10.7 C18.3,11.5 18.8,11.9 19.9,12.4 L20.6,12.7 C22.9,13.8 24.1,14.9 24.1,17.2 C24.1,19.6 22.1,21 20,21 C17.9,21 16.4,19.9 15.5,18.2 Z" fill="#000000"/>
    </symbol>

    <!-- Python -->
    <symbol id="icon-python" viewBox="0 0 24 24">
      <path d="M12 0C5.975 0 6.375 2.65 6.375 2.65v2.725h5.7v.85H4.025C4.025 6.225 0 6.85 0 12c0 5.15 3.525 5.525 3.525 5.525h2.1v-2.675s-.15-3.525 3.15-3.525h5.425s3.225.1 3.225-3.1V3.2S18.375 0 12 0zm-3.375 1.575c.575 0 1.025.45 1.025 1.025s-.45 1.025-1.025 1.025-1.025-.45-1.025-1.025.45-1.025 1.025-1.025z" fill="#3776AB"/>
      <path d="M20.475 6.225h-2.1v2.675s.15 3.525-3.15 3.525H9.8s-3.225-.1-3.225 3.1v5.025S5.625 24 12 24c6.025 0 5.625-2.65 5.625-2.65V18.625h-5.7v-.85h8.05c0 0 4.025-.625 4.025-5.775 0-5.15-3.525-5.525-3.525-5.525zm-5.025 15.2c.575 0 1.025.45 1.025 1.025s-.45 1.025-1.025 1.025-1.025-.45-1.025-1.025.45-1.025 1.025-1.025z" fill="#3776AB"/>
    </symbol>

    <!-- React -->
    <symbol id="icon-react" viewBox="0 0 24 24">
      <circle cx="12" cy="12" r="2.139" fill="#61DAFB"/>
      <path d="M12,15.147a13.984,13.984,0,0,1-2.967-.308c-1.677-.363-2.72-1.025-2.934-1.863a2.215,2.215,0,0,1,.5-1.912,3.957,3.957,0,0,1,.51-.565,12.318,12.318,0,0,1-1.01-1.563,3.859,3.859,0,0,1-.267-.636c-.34-.956.088-1.883,1.2-2.6A12.716,12.716,0,0,1,12,4.852a13.983,13.983,0,0,1,2.967.308c1.677.363,2.72,1.025,2.934,1.863a2.215,2.215,0,0,1-.5,1.911,3.957,3.957,0,0,1-.51.566,12.318,12.318,0,0,1,1.01,1.563,3.859,3.859,0,0,1,.267.636c.34.956-.088,1.883-1.2,2.6A12.716,12.716,0,0,1,12,15.147Zm0-8.958a12.014,12.014,0,0,0-4.2.735c-.851.546-1.152,1.1-.9,1.655.272.6,1.276,1.08,2.551,1.356A12.952,12.952,0,0,0,12,10.205a13.133,13.133,0,0,0,3.3-.323,4.541,4.541,0,0,0,.9-.285c.852-.546,1.152-1.1.9-1.655-.272-.6-1.276-1.08-2.551-1.356A12.952,12.952,0,0,0,12,6.189Zm-2.9,4.347c.359.386.737.77,1.132,1.142q.59-.61,1.177-1.142c-.362-.339-.736-.674-1.117-1Q9.74,10.2,9.1,10.536Z" fill="#61DAFB"/>
      <path d="M16.7,22.335a1.982,1.982,0,0,1-1.016-.269c-1.2-.712-1.628-1.639-1.2-2.6a3.859,3.859,0,0,1,.267-.636A11.562,11.562,0,0,1,15.8,17.25c-.152-.187-.316-.375-.489-.565a13.357,13.357,0,0,1-1.134-1.431A17.615,17.615,0,0,1,12,13.441a17.9,17.9,0,0,1-2.177,1.813c-.373.281-.74.541-1.089.779-.381.26-.743.5-1.082.72a3.957,3.957,0,0,1-.51.565c-.774.778-1.016,1.512-.7,2.048.3.522,1.11.921,2.266,1.122A13.983,13.983,0,0,0,12,19.794a13.133,13.133,0,0,0,3.3-.323,4.541,4.541,0,0,0,.9-.285c.852-.546,1.152-1.1.9-1.655a.655.655,0,0,0-.115-.2.655.655,0,0,1,.115.2c.251.555-.051,1.108-.9,1.655s-2,1-3.615,1.119c-1.166.094-2.5.071-3.993-.068C7.2,20.09,6.118,19.671,5.645,19a2.215,2.215,0,0,1-.5-1.912c.214-.838,1.257-1.5,2.934-1.863A13.984,13.984,0,0,1,12,14.911a13.133,13.133,0,0,1,3.3.323,4.541,4.541,0,0,1,.9.285c.852.546,1.152,1.1.9,1.655-.272.6-1.276,1.08-2.551,1.356A12.952,12.952,0,0,1,12,18.858c-.361,0-.729-.012-1.1-.035a11.182,11.182,0,0,1-1.171-.118c.359.032.772.063,1.171.083.362.019.73.028,1.1.028a12.952,12.952,0,0,0,2.751-.33A6.028,6.028,0,0,0,16.7,18.2,3.073,3.073,0,0,1,16.7,22.335Z" fill="#61DAFB"/>
      <path d="M7.3,22.335a3.073,3.073,0,0,1,0-4.139,6.028,6.028,0,0,0-1.046-.387A13.983,13.983,0,0,1,3.29,17.5c-1.111-.717-1.539-1.645-1.2-2.6a3.859,3.859,0,0,1,.267-.636,12.318,12.318,0,0,1,1.01-1.563c-.165-.209-.318-.421-.456-.635a3.957,3.957,0,0,1-.51-.565c-.774-.778-1.016-1.512-.7-2.048.3-.522,1.11-.921,2.266-1.122A13.984,13.984,0,0,1,7.3,8.065a1.982,1.982,0,0,1,1.016.269c1.2.712,1.628,1.639,1.2,2.6a3.859,3.859,0,0,1-.267.636A11.562,11.562,0,0,1,8.2,13.147c.152.187.316.375.489.565a13.357,13.357,0,0,0,1.134,1.431A17.615,17.615,0,0,0,12,16.956a17.9,17.9,0,0,0,2.177-1.813c.373-.281.74-.541,1.089-.779a3.957,3.957,0,0,0,.51-.565c.774-.778,1.016-1.512.7-2.048-.3-.522-1.11-.921-2.266-1.122A13.984,13.984,0,0,0,10.867,10.3a.655.655,0,0,1-.115-.2.655.655,0,0,0,.115.2c.251.555-.051,1.108-.9,1.655a6.028,6.028,0,0,1-1.046.387A13.984,13.984,0,0,0,5.955,12.03c-1.677-.363-2.72-1.025-2.934-1.863a2.215,2.215,0,0,1,.5-1.912c.473-.676,1.557-1.1,2.95-1.231,1.489-.139,2.827-.162,3.993-.068A13.983,13.983,0,0,0,13.45,7.42c1.111.717,1.539,1.645,1.2,2.6a3.859,3.859,0,0,1-.267.636A12.318,12.318,0,0,1,13.373,12.2a11.562,11.562,0,0,0-1.048,1.578,3.859,3.859,0,0,0-.267.636c-.43.958,0,1.885,1.2,2.6A1.982,1.982,0,0,0,14.27,17.3a3.073,3.073,0,0,1,0,4.139,1.982,1.982,0,0,1-1.016.269A12.716,12.716,0,0,1,8.315,20.86c-.165.054-.326.1-.483.149C7.644,21.257,7.458,21.335,7.3,22.335Z" fill="#61DAFB"/>
    </symbol>

    <!-- Node.js -->
    <symbol id="icon-node" viewBox="0 0 24 24">
      <path d="M11.998,24c-0.321,0-0.641-0.084-0.922-0.247l-2.936-1.737c-0.438-0.245-0.224-0.332-0.08-0.383 c0.585-0.203,0.703-0.25,1.328-0.604c0.065-0.037,0.151-0.023,0.218,0.017l2.256,1.339c0.082,0.045,0.197,0.045,0.272,0l8.795-5.076 c0.082-0.047,0.134-0.141,0.134-0.238V6.921c0-0.099-0.053-0.192-0.137-0.242l-8.791-5.072c-0.081-0.047-0.189-0.047-0.271,0 L3.075,6.68C2.99,6.729,2.936,6.825,2.936,6.921v10.15c0,0.097,0.054,0.189,0.139,0.235l2.409,1.392 c1.307,0.654,2.108-0.116,2.108-0.89V7.787c0-0.142,0.114-0.253,0.256-0.253h1.115c0.139,0,0.255,0.112,0.255,0.253v10.021 c0,1.745-0.95,2.745-2.604,2.745c-0.508,0-0.909,0-2.026-0.551L2.28,18.675c-0.57-0.329-0.922-0.945-0.922-1.604V6.921 c0-0.659,0.353-1.275,0.922-1.603l8.795-5.082c0.557-0.315,1.296-0.315,1.848,0l8.794,5.082c0.57,0.329,0.924,0.944,0.924,1.603 v10.15c0,0.659-0.354,1.273-0.924,1.604l-8.794,5.078C12.643,23.916,12.324,24,11.998,24z M18.71,13.324 c0-1.9-1.284-2.406-3.987-2.763c-2.731-0.361-3.009-0.548-3.009-1.187c0-0.528,0.235-1.233,2.258-1.233 c1.807,0,2.473,0.389,2.747,1.607c0.024,0.115,0.129,0.199,0.247,0.199h1.141c0.071,0,0.138-0.031,0.186-0.081 c0.048-0.054,0.074-0.123,0.067-0.196c-0.177-2.098-1.571-3.076-4.388-3.076c-2.508,0-4.004,1.058-4.004,2.833 c0,1.925,1.488,2.457,3.895,2.695c2.88,0.282,3.103,0.703,3.103,1.269c0,0.983-0.789,1.402-2.642,1.402 c-2.327,0-2.839-0.584-3.011-1.742c-0.02-0.124-0.126-0.215-0.253-0.215h-1.137c-0.141,0-0.254,0.112-0.254,0.253 c0,1.482,0.806,3.248,4.655,3.248C17.002,17.138,18.71,16.036,18.71,13.324z" fill="#339933"/>
    </symbol>

    <!-- HTML5 -->
    <symbol id="icon-html" viewBox="0 0 24 24">
      <path d="M1.5,0 L2.54196875,21.5509375 L11.999875,24 L21.4590625,21.5509375 L22.5,0 L1.5,0 Z" fill="#E44D26"/>
      <path d="M12,22.1687695 L19.4310937,20.1267188 L20.316375,1.89375 L12,1.89375 L12,22.1687695 Z" fill="#F16529"/>
      <path d="M9.38968359,9.37230664 L9.2303002,7.45099219 L18.7710527,7.45099219 L18.9136113,5.83582422 L5.08691113,5.83582422 L5.50860644,10.9875762 L15.4319805,10.9875762 L15.2084883,13.2327539 L11.9991719,13.9873926 L8.80709473,13.2327539 L8.64674219,11.5291797 L7.0315625,11.5291797 L7.33381543,14.9338105 L12,16.1276543 L16.6527031,14.9396387 L17.1258125,9.37230664 L9.38968359,9.37230664 Z" fill="#EBEBEB"/>
      <path d="M11.9885,9.37230664 L9.38968359,9.37230664 L9.2303002,7.45099219 L11.9885,7.45099219 L11.9885,5.83582422 L11.9799102,5.83582422 L5.08691113,5.83582422 L5.16166895,6.69082422 L5.50860644,10.9875762 L11.9885,10.9875762 L11.9885,9.37230664 Z M11.9885,13.9814062 L11.9799102,13.9862266 L8.80709473,13.2327539 L8.64674219,11.5291797 L7.0315625,11.5291797 L7.33381543,14.9338105 L11.9799102,16.1266133 L11.9885,16.1245976 L11.9885,13.9814062 Z" fill="#EBEBEB"/>
    </symbol>

    <!-- CSS3 -->
    <symbol id="icon-css" viewBox="0 0 24 24">
      <path d="M1.5,0 L2.54196875,21.5509375 L11.999875,24 L21.4590625,21.5509375 L22.5,0 L1.5,0 Z" fill="#1572B6"/>
      <path d="M12,22.1687695 L19.4310937,20.1267188 L20.316375,1.89375 L12,1.89375 L12,22.1687695 Z" fill="#33A9DC"/>
      <path d="M18.6304688,5.265 L12,5.265 L12,7.6746875 L16.200375,7.6746875 L15.9695625,10.005 L12,10.005 L12,12.4146875 L15.7500313,12.4146875 L15.4414688,15.5425 L12,16.4653125 L12,19.0406563 L17.6946563,17.1346875 L18.2205938,10.9546875 L18.6304688,5.265 Z" fill="#FFFFFF"/>
      <path d="M12,5.265 L12,7.6746875 L5.953125,7.6746875 L5.7693125,5.265 L12,5.265 Z M8.82,10.005 L9.01475,12.4146875 L12,12.4146875 L12,10.005 L8.82,10.005 Z M9.195375,13.5619688 L6.04371875,13.5619688 L6.3871875,17.1346875 L12,19.0425938 L12,16.4653125 L8.55403125,15.5396875 L9.195375,13.5619688 Z" fill="#EBEBEB"/>
    </symbol>
  </defs>
</svg>