<svg xmlns="http://www.w3.org/2000/svg" viewBox="0 0 800 200">
  <rect width="800" height="200" fill="#21262d"/>
  
  <\!-- JS Icon -->
  <g transform="translate(50, 50)">
    <rect x="0" y="0" width="80" height="80" fill="#f7df1e"/>
    <path d="M20,65 L35,65 C38,65 40,63 41,59 L41,36 L33,36 L33,58 C33,60 32,61 30,61 L25,61 C23,61 22,60 22,58 L22,36 L14,36 L14,60 C14,63 16,65 20,65 Z M45,65 L60,65 C65,65 69,62 69,55 C69,49 66,47 62,45 C58,43 57,42 57,40 C57,38 58,37 60,37 C62,37 63,38 63,40 L63,43 L69,43 L69,39 C69,35 66,32 60,32 C54,32 50,35 50,41 C50,46 53,48 57,50 C61,52 62,53 62,55 C62,57 61,58 59,58 C57,58 56,57 56,55 L56,51 L49,51 L49,56 C49,62 54,65 60,65 Z" fill="#21262d"/>
  </g>
  
  <\!-- Python Icon -->
  <g transform="translate(150, 50)">
    <path d="M40,0 C30,0 20,2 20,10 L20,20 L40,20 L40,25 L10,25 C0,25 0,33 0,40 C0,47 0,55 10,55 L15,55 L15,45 C15,35 25,30 40,30 C55,30 60,35 60,45 L60,80 C60,90 50,90 40,90 C30,90 20,90 20,80 L20,70 L40,70 L40,65 L0,65 L0,80 C0,95 15,100 40,100 C65,100 80,95 80,80 L80,40 C80,25 65,20 40,20 L40,10 C40,5 45,5 50,5 L70,5 L70,0 L40,0 Z M25,35 C22,35 20,37 20,40 C20,43 22,45 25,45 C28,45 30,43 30,40 C30,37 28,35 25,35 Z" fill="#3572A5"/>
  </g>
  
  <\!-- React Icon -->
  <g transform="translate(250, 50)">
    <ellipse cx="40" cy="40" rx="30" ry="12" fill="none" stroke="#61dafb" stroke-width="5"/>
    <ellipse cx="40" cy="40" rx="30" ry="12" fill="none" stroke="#61dafb" stroke-width="5" transform="rotate(60 40 40)"/>
    <ellipse cx="40" cy="40" rx="30" ry="12" fill="none" stroke="#61dafb" stroke-width="5" transform="rotate(120 40 40)"/>
    <circle cx="40" cy="40" r="7" fill="#61dafb"/>
  </g>
  
  <\!-- Node.js Icon -->
  <g transform="translate(350, 50)">
    <path d="M40,0 C38,0 36,0.5 35,1.5 L5,18.5 C2,20 0,23 0,26.5 L0,73.5 C0,77 2,80 5,81.5 L35,98.5 C38,100 42,100 45,98.5 L75,81.5 C78,80 80,77 80,73.5 L80,26.5 C80,23 78,20 75,18.5 L45,1.5 C44,0.5 42,0 40,0 Z" fill="#8CC84B"/>
    <path d="M45,20 L65,30 L65,60 L45,70 L25,60 L25,30 L45,20 Z" fill="#21262d"/>
  </g>
  
  <\!-- Docker Icon -->
  <g transform="translate(450, 50)">
    <rect x="10" y="35" width="15" height="15" fill="#2496ed"/>
    <rect x="30" y="35" width="15" height="15" fill="#2496ed"/>
    <rect x="50" y="35" width="15" height="15" fill="#2496ed"/>
    <rect x="10" y="55" width="15" height="15" fill="#2496ed"/>
    <rect x="30" y="55" width="15" height="15" fill="#2496ed"/>
    <rect x="50" y="55" width="15" height="15" fill="#2496ed"/>
    <rect x="70" y="55" width="15" height="15" fill="#2496ed"/>
    <rect x="30" y="15" width="15" height="15" fill="#2496ed"/>
    <path d="M5,75 C5,65 15,60 25,65 C30,50 50,55 55,65 C65,55 80,65 75,80 C75,85 70,90 65,90 L15,90 C10,90 5,85 5,80 L5,75 Z" fill="#2496ed"/>
  </g>
  
  <\!-- Cloud Icon -->
  <g transform="translate(550, 50)">
    <path d="M55,80 L20,80 C5,80 0,65 5,55 C10,45 20,45 25,50 C25,30 45,20 60,30 C65,15 90,15 90,45 C100,45 100,65 90,70 L55,70 L55,80 Z" fill="#4285f4"/>
  </g>
  
  <\!-- Security Icon -->
  <g transform="translate(650, 50)">
    <path d="M50,0 L80,15 L80,45 C80,65 65,75 50,80 C35,75 20,65 20,45 L20,15 L50,0 Z" fill="#ff5252"/>
    <path d="M50,10 L70,20 L70,45 C70,55 60,65 50,70 C40,65 30,55 30,45 L30,20 L50,10 Z" fill="#21262d"/>
    <path d="M50,40 L60,40 L60,60 L50,60 L50,40 Z M50,20 L50,35 L40,35 L40,20 L50,20 Z" fill="#ff5252"/>
  </g>
</svg>
